<svg width="102" height="108" viewBox="0 0 102 108" fill="none" xmlns="http://www.w3.org/2000/svg">
<g opacity="0.5">
<path d="M48.7304 15.5933C25.8219 15.5888 7.24564 34.2243 7.23536 57.2206C7.22507 80.2169 25.7846 98.8691 48.6932 98.8854C71.6017 98.9016 90.1875 80.2757 90.2095 57.2794C90.2222 46.228 85.8577 35.6248 78.0775 27.8058C70.2973 19.9867 59.7397 15.5933 48.7304 15.5933Z" stroke="#3A4374" stroke-width="1.04545" stroke-linecap="round" stroke-linejoin="round"/>
<ellipse cx="70.4762" cy="43.691" rx="1.91663" ry="2.86191" fill="#231F20"/>
<path d="M0 44.9016L97.4288 23.2569L78.2625 17.6453C78.2625 17.6453 67.8807 0.3696 65.1096 0.00885439C62.3384 -0.351891 11.9789 10.4304 11.9789 10.4304L8.78456 34.7687L0 44.9016Z" fill="#3A4374"/>
<path d="M20.2841 103.503L9.27148 86.0268L57.4109 77.7617L60.7171 94.5083L65.6045 79.0845L90.2332 83.9665L85.226 103.503H20.2841Z" fill="#3A4374"/>
<path d="M81.9699 65.6066L86.4077 64.99L88.7003 81.6182C88.86 82.776 88.0544 83.8445 86.901 84.0047L86.64 84.041C85.4866 84.2012 84.4222 83.3926 84.2625 82.2348L81.9699 65.6066Z" fill="white"/>
<path fill-rule="evenodd" clip-rule="evenodd" d="M83.8686 82.2987C84.0433 83.5419 85.1014 84.4675 86.3522 84.4711C86.4618 84.4704 86.5711 84.4623 86.6796 84.4471L86.9352 84.407C87.5957 84.3196 88.1939 83.9702 88.596 83.437C88.9982 82.9038 89.1708 82.2311 89.0754 81.5691L86.7994 64.9428C86.7883 64.8371 86.7332 64.741 86.6477 64.6782C86.5637 64.6132 86.4574 64.5843 86.3522 64.5981L81.92 65.2154C81.7019 65.2444 81.5483 65.4452 81.5766 65.6643L83.8686 82.2987ZM84.6592 82.1864L82.4231 65.9529L86.0647 65.4879L88.3008 81.7215C88.4288 82.6573 87.7791 83.521 86.8473 83.6535H86.5838C85.65 83.7771 84.7913 83.1226 84.6592 82.1864Z" fill="#3A4374"/>
<path d="M78.5617 50.9298L85.7207 49.9352L87.963 66.198L80.804 67.1927L78.5617 50.9298Z" fill="white"/>
<path fill-rule="evenodd" clip-rule="evenodd" d="M80.5624 67.5246C80.6325 67.5747 80.716 67.6026 80.802 67.6048L80.8499 67.5968L88.0373 66.6027C88.2554 66.5736 88.409 66.3728 88.3807 66.1538L86.1366 49.8882C86.1248 49.7821 86.0704 49.6853 85.9861 49.6203C85.9017 49.5553 85.7946 49.5275 85.6894 49.5435L78.5021 50.5375C78.3985 50.5538 78.3045 50.608 78.2385 50.6898C78.1757 50.7749 78.1498 50.8819 78.1666 50.9864L80.4107 67.2601C80.4198 67.3664 80.4754 67.4633 80.5624 67.5246ZM81.1454 66.747L79.0132 51.275L85.4019 50.3932L87.5342 65.8652L81.1454 66.747Z" fill="#3A4374"/>
<path d="M82.8021 81.6749C82.5573 79.8992 83.7972 78.2608 85.5727 78.0142L86.2975 77.9135C88.0756 77.6664 89.7169 78.9086 89.9621 80.6869L92.9747 102.537C93.2196 104.313 91.9796 105.951 90.2041 106.198L89.4793 106.299C87.7012 106.546 86.0599 105.303 85.8148 103.525L82.8021 81.6749Z" fill="white"/>
<path fill-rule="evenodd" clip-rule="evenodd" d="M85.5059 104.272C85.7089 105.737 86.9556 106.828 88.4287 106.83L88.828 106.838L90.9363 106.541C92.5459 106.313 93.6699 104.823 93.4519 103.206L90.2575 79.9582C90.0347 78.34 88.5474 77.2095 86.9354 77.433L84.8271 77.7215C84.0525 77.8313 83.3523 78.2432 82.8785 78.8679C82.4053 79.4949 82.2012 80.2857 82.3115 81.0645L85.5059 104.272ZM87.0472 78.2025C87.1455 78.1946 87.2443 78.1946 87.3426 78.2025L87.3187 78.2106C88.3909 78.2164 89.296 79.0122 89.443 80.0784L92.6373 103.326C92.7795 104.496 91.963 105.565 90.8006 105.731L88.6923 106.028C87.528 106.166 86.4657 105.349 86.2965 104.184L83.1021 80.9362C83.0168 80.3673 83.1668 79.7881 83.5174 79.3329C83.8594 78.8721 84.3717 78.5688 84.9389 78.4911L87.0472 78.2025Z" fill="#3A4374"/>
<ellipse cx="81.5687" cy="46.2887" rx="19.1903" ry="19.2638" fill="white"/>
<path fill-rule="evenodd" clip-rule="evenodd" d="M61.9845 47.1751C62.4607 57.6779 71.0794 65.9486 81.5529 65.9534C82.4664 65.953 83.3788 65.8914 84.2841 65.769C94.9829 64.2496 102.445 54.3331 100.975 43.5871C99.5407 33.1725 90.2025 25.7304 79.7727 26.6902C69.3429 27.65 61.5083 36.6724 61.9845 47.1751ZM78.9574 27.5941C79.8176 27.4758 80.6847 27.4169 81.5529 27.4177H81.5848C90.9448 27.4585 98.8543 34.3942 100.152 43.6994C101.195 51.2603 97.5977 58.7073 91.0378 62.5674C84.478 66.4276 76.2475 65.9407 70.1847 61.3337C64.122 56.7268 61.4209 48.9072 63.3413 41.5216C65.2616 34.136 71.4251 28.639 78.9574 27.5941Z" fill="#3A4374"/>
<ellipse cx="81.5686" cy="46.2885" rx="15.5886" ry="15.6483" fill="white"/>
<path fill-rule="evenodd" clip-rule="evenodd" d="M65.598 46.8577C65.8949 55.4923 72.954 62.338 81.5607 62.3378C82.2954 62.3387 83.0292 62.2878 83.7568 62.1855C92.2818 60.9975 98.3359 53.2423 97.447 44.6488C96.5581 36.0553 89.0458 29.7142 80.4596 30.3097C71.8733 30.9052 65.3012 38.2231 65.598 46.8577ZM79.4444 31.2175C80.1458 31.1219 80.8528 31.0737 81.5607 31.0732C89.7341 31.0908 96.4251 37.6041 96.6934 45.8045C96.9618 54.0049 90.7113 60.9451 82.5566 61.5011C74.4019 62.0572 67.2738 56.0292 66.4351 47.8677C65.5963 39.7062 71.3484 32.3444 79.4444 31.2175Z" fill="#3A4374"/>
<path d="M99.8964 89.7141C98.8417 88.3705 97.5059 87.2758 95.9833 86.5075C91.4074 84.1025 86.1606 84.1827 81.345 85.7058C79.636 86.251 76.3219 87.0286 76.1462 89.3053C76.1592 90.2377 76.7787 91.0517 77.6715 91.3094C78.5454 91.5369 79.4579 91.5724 80.3468 91.4136C79.0802 91.3795 77.8287 91.6956 76.7292 92.3275C75.699 93.057 75.132 94.6523 75.9785 95.6223C76.3526 96.0256 76.84 96.3052 77.376 96.424C78.5413 96.7457 79.7736 96.729 80.9298 96.3759C79.6787 96.6165 78.4594 97.0011 77.2962 97.5223C76.5934 97.8349 75.8108 98.388 75.8906 99.1256C75.9705 99.8631 76.6892 100.2 77.3441 100.424C78.7218 100.899 80.1611 101.169 81.6166 101.226C80.3603 101.455 79.1724 101.967 78.1427 102.725C76.5455 104.072 76.5455 106.629 78.7097 107.359C79.4039 107.562 80.1276 107.646 80.8499 107.607C87.2387 107.607 94.8892 106.805 99.2176 101.466C101.348 98.968 102.113 95.5754 101.262 92.3997C100.966 91.4314 100.504 90.5226 99.8964 89.7141Z" fill="white"/>
<path fill-rule="evenodd" clip-rule="evenodd" d="M78.5819 107.72C79.3021 107.931 80.0525 108.021 80.802 107.984L80.826 108C87.1509 107.992 94.9931 107.271 99.5211 101.715C101.742 99.1142 102.535 95.5771 101.637 92.2717C101.319 91.2654 100.83 90.3217 100.192 89.482C99.1056 88.0783 97.7228 86.9339 96.1431 86.1311C91.8466 83.9345 86.536 83.6379 81.2013 85.3294L80.6902 85.4817C80.6725 85.4872 80.6546 85.4927 80.6367 85.4982C78.7359 86.0832 75.9049 86.9546 75.723 89.2736C75.714 90.2817 76.3184 91.1934 77.2483 91.5743C76.9662 91.6869 76.6982 91.8322 76.4497 92.0072C75.7473 92.5152 75.2805 93.2876 75.156 94.1476C75.0623 94.7657 75.2334 95.3948 75.6271 95.8792C76.0516 96.3435 76.61 96.6631 77.2243 96.7931C77.3662 96.8354 77.5101 96.8702 77.6556 96.8973L77.0886 97.1378C75.9865 97.6589 75.3716 98.4926 75.4914 99.182C75.6112 99.8715 76.1462 100.417 77.2084 100.785C77.9885 101.058 78.7899 101.264 79.6041 101.403C78.9772 101.637 78.394 101.976 77.8792 102.405C76.9498 103.191 76.4958 104.406 76.6813 105.611C76.8789 106.612 77.6094 107.423 78.5819 107.72ZM77.4559 97.8352C78.2906 97.4585 79.1563 97.1554 80.0434 96.9294C80.3784 96.8901 80.7096 96.8231 81.0336 96.729C81.2348 96.6637 81.3527 96.4547 81.3052 96.248C81.2538 96.0412 81.0504 95.9109 80.842 95.9514C80.5225 96.0155 80.1951 96.0876 79.8757 96.1678C79.0744 96.2733 78.2602 96.2188 77.4799 96.0075C77.024 95.9137 76.6067 95.6847 76.282 95.3501C76.0354 95.0352 75.9312 94.6312 75.9945 94.2358C76.0874 93.5922 76.436 93.0138 76.9608 92.6325C77.6552 92.1915 78.4487 91.9324 79.2687 91.8789C79.4537 91.8751 79.6368 91.8544 79.8171 91.8341C80.0105 91.8122 80.2008 91.7908 80.3868 91.7908C80.6023 91.7656 80.7604 91.5752 80.7461 91.3579C80.7214 91.1435 80.5378 90.9835 80.3229 90.9891C80.2998 90.9907 80.2766 90.9923 80.2533 90.9938C79.9231 91.0164 79.5795 91.0398 79.2288 91.0773C78.7455 91.1087 78.2606 91.0489 77.7993 90.9009C77.0774 90.6969 76.5682 90.0498 76.5375 89.2976C76.6811 87.5036 79.2479 86.7258 80.941 86.2127L80.9458 86.2112L81.4649 86.0509C86.5999 84.4476 91.6869 84.7282 95.7997 86.8525C97.2752 87.5991 98.5658 88.6673 99.577 89.979C100.161 90.7435 100.609 91.6032 100.903 92.5203C101.717 95.5699 100.976 98.8266 98.9222 101.218C94.6098 106.517 86.9992 107.207 80.842 107.207C80.1659 107.251 79.4873 107.175 78.8375 106.982C78.1361 106.78 77.606 106.201 77.4639 105.483C77.3222 104.557 77.6773 103.625 78.3983 103.03C79.3886 102.318 80.5228 101.834 81.7204 101.611C81.9124 101.561 82.0383 101.376 82.0159 101.178C81.9957 100.98 81.831 100.828 81.6326 100.825C80.214 100.765 78.8121 100.495 77.4719 100.024C76.9608 99.8554 76.3539 99.647 76.29 99.0538C76.2261 98.4605 77.0806 98.0036 77.4559 97.8352Z" fill="#3A4374"/>
<path d="M55.3669 46.5933C55.3669 46.5933 65.0938 61.2636 59.2081 61.472C53.3225 61.6804 52.8193 60.1332 52.8193 60.1332" fill="white"/>
<path d="M58.1538 61.9367C53.2185 61.9367 52.5077 60.5819 52.4119 60.3334C52.3429 60.1145 52.4596 59.8803 52.6754 59.8043C52.8914 59.7356 53.1223 59.8533 53.1945 60.0689C53.1945 60.0689 53.9133 61.3114 59.192 61.119C59.7173 61.1677 60.2226 60.9046 60.4857 60.4456C61.7475 57.9846 56.9719 49.8237 55.0233 46.8896C54.9149 46.7001 54.9707 46.4586 55.1512 46.3364C55.3318 46.2142 55.5757 46.2527 55.7101 46.4247C56.4528 47.547 62.8975 57.4875 61.2204 60.8545C60.8289 61.5874 60.0513 62.0277 59.2239 61.9848L58.1538 61.9367Z" fill="#3A4374"/>
<ellipse cx="82.4551" cy="45.7997" rx="3.5298" ry="6.03647" fill="#C0C5DC"/>
<ellipse cx="39.2591" cy="45.7996" rx="2.69127" ry="4.88209" fill="#3A4374"/>
</g>
</svg>
